0
SECTION
2
HEADER
9
$INSUNITS
70
4
9
$ACADVER
1
AC1014
9
$HANDSEED
5
FFFF
0
ENDSEC
0
SECTION
2
TABLES
0
TABLE
2
VPORT
5
8
100
AcDbSymbolTable
0
ENDTAB
0
TABLE
2
LTYPE
5
5
100
AcDbSymbolTable
0
LTYPE
5
14
100
AcDbSymbolTableRecord
100
AcDbLinetypeTableRecord
2
BYBLOCK
70
0
0
LTYPE
5
15
100
AcDbSymbolTableRecord
100
AcDbLinetypeTableRecord
2
BYLAYER
70
0
0
ENDTAB
0
TABLE
2
LAYER
5
2
100
AcDbSymbolTable
70
2
0
LAYER
5
50
100
AcDbSymbolTableRecord
100
AcDbLayerTableRecord
2
0
70
0
6
CONTINUOUS
0
ENDTAB
0
TABLE
2
STYLE
5
3
100
AcDbSymbolTable
70
1
0
STYLE
5
11
100
AcDbSymbolTableRecord
100
AcDbTextStyleTableRecord
2
STANDARD
70
0
0
ENDTAB
0
TABLE
2
VIEW
5
6
100
AcDbSymbolTable
70
0
0
ENDTAB
0
TABLE
2
UCS
5
7
100
AcDbSymbolTable
70
0
0
ENDTAB
0
TABLE
2
APPID
5
9
100
AcDbSymbolTable
70
2
0
APPID
5
12
100
AcDbSymbolTableRecord
100
AcDbRegAppTableRecord
2
ACAD
70
0
0
ENDTAB
0
TABLE
2
DIMSTYLE
5
A
100
AcDbSymbolTable
70
1
0
ENDTAB
0
TABLE
2
BLOCK_RECORD
5
1
100
AcDbSymbolTable
70
1
0
BLOCK_RECORD
5
1F
100
AcDbSymbolTableRecord
100
AcDbBlockTableRecord
2
*MODEL_SPACE
0
BLOCK_RECORD
5
1B
100
AcDbSymbolTableRecord
100
AcDbBlockTableRecord
2
*PAPER_SPACE
0
ENDTAB
0
ENDSEC
0
SECTION
2
BLOCKS
0
BLOCK
5
20
100
AcDbEntity
100
AcDbBlockBegin
2
*MODEL_SPACE
0
ENDBLK
5
21
100
AcDbEntity
100
AcDbBlockEnd
0
BLOCK
5
1C
100
AcDbEntity
100
AcDbBlockBegin
2
*PAPER_SPACE
0
ENDBLK
5
1D
100
AcDbEntity
100
AcDbBlockEnd
0
ENDSEC
0
SECTION
2
ENTITIES
0
LWPOLYLINE
5
100
100
AcDbEntity
8
0
100
AcDbPolyline
90
80
70
1
43
0.0
10
103.429
20
71.871399999999994
10
103.40000000000002
20
71.817800000000005
10
103.40000000000002
20
24.784000000000006
10
103.429
20
24.7303
10
103.48200000000003
20
24.6999
10
103.50000000000001
20
24.6999
10
113.90000000000001
20
24.6999
10
113.90000000000001
20
24.710999999999999
10
113.91400000000002
20
24.742700000000003
10
113.93799999999999
20
24.738500000000002
10
113.94200000000001
20
24.715100000000003
10
113.91
20
24.6999
10
113.90000000000001
20
24.6999
10
113.90000000000001
20
21.800600000000003
10
113.90000000000001
20
21.784000000000002
10
113.929
20
21.730300000000003
10
113.98200000000003
20
21.699999999999999
10
113.99900000000001
20
21.699999999999999
10
192.01700000000002
20
21.699999999999999
10
192.071
20
21.730300000000003
10
192.10000000000002
20
21.784000000000002
10
192.10000000000002
20
21.800600000000003
10
192.10000000000002
20
24.6999
10
202.5
20
24.6999
10
202.517
20
24.6999
10
202.57000000000002
20
24.7303
10
202.601
20
24.784000000000006
10
202.59999547153711
20
34.799999222159371
42
0.23121242425534563
10
202.51643833792272
20
34.82020229980666
10
199.21643833792297
20
34.820202299806688
42
0.41421356237312101
10
199.11643833792297
20
34.720202299806687
10
199.11643833792289
20
31.670202299807613
42
-0.41421356237312101
10
199.01643833792292
20
31.570202299807626
10
195.71643833792274
20
31.570202299808212
42
-0.41421356237197643
10
195.61643833792311
20
31.670202299808192
10
195.61643833792311
20
34.720202299806679
42
0.41421356237319906
10
195.51643833792303
20
34.82020229980666
10
194.71643833792314
20
34.820202299806652
42
-0.41421356237288692
10
194.61643833792317
20
34.920202299806668
10
194.61643833792317
20
37.720202299806672
42
-0.41421356237312101
10
194.71643833792314
20
37.820202299806667
10
195.51643833792312
20
37.820202299806667
42
0.41421356237304302
10
195.61643833792317
20
37.920202299806675
10
195.61643833792289
20
40.970202299808271
42
-0.41421356237312101
10
195.71643833792294
20
41.070202299808322
10
199.01643833792298
20
41.0702022998058
42
-0.41421356237301699
10
199.11643833792306
20
40.970202299805749
10
199.11643833792306
20
37.920202299806682
42
0.41421356237286089
10
199.21643833792302
20
37.820202299806638
10
202.51643833792258
20
37.820202299806667
42
0.41421356237314705
10
202.61643833792255
20
37.920202299806675
10
202.61643833792255
20
56.570502299806591
42
0.41421356237293894
10
202.51643833792264
20
56.670502299806628
10
199.21643833792336
20
56.670502299806849
42
0.41421356237494206
10
199.11643833792277
20
56.570502299806869
10
199.11643833792277
20
53.520502299805266
42
-0.41421356237288692
10
199.01643833792278
20
53.42050229980525
10
195.71643833792257
20
53.420502299807296
42
-0.41421356237416163
10
195.6164383379226
20
53.520502299807774
10
195.61643833792255
20
56.57050229980706
42
0.41421356237309503
10
195.51643833792255
20
56.670502299807083
10
194.71643833792263
20
56.670502299807133
42
-0.41421356237343321
10
194.61643833792266
20
56.77050229980712
10
194.61643833792266
20
59.570502299806634
42
-0.41421356237340723
10
194.71643833792263
20
59.670502299806614
10
195.51643833792264
20
59.670502299806635
42
0.41421356237309503
10
195.6164383379226
20
59.770502299806623
10
195.6164383379226
20
62.820502299805256
42
-0.41421356237312101
10
195.71643833792265
20
62.920502299805307
10
199.01643833792278
20
62.920502299807552
42
-0.41421356237335516
10
199.1164383379226
20
62.82050229980775
10
199.1164383379226
20
59.770502299806651
42
0.41421356237314705
10
199.2164383379226
20
59.670502299806635
10
202.51643833792258
20
59.670502299806635
42
0.41421356237314705
10
202.61643833792255
20
59.770502299806637
10
202.57000000000002
20
71.871399999999994
10
202.517
20
71.900700000000001
10
202.5
20
71.900700000000001
10
103.50000000000001
20
71.900700000000001
10
103.48200000000003
20
71.900700000000001
0
LINE
5
101
100
AcDbEntity
8
0
100
AcDbLine
10
103.40000000000002
20
71.817800000000005
30
0
11
103.40000000000002
21
71.799800000000005
31
0
0
LINE
5
102
100
AcDbEntity
8
0
100
AcDbLine
10
202.601
20
71.799800000000005
30
0
11
202.601
21
71.817800000000005
31
0
0
LINE
5
103
100
AcDbEntity
8
0
100
AcDbLine
10
202.601
20
71.817800000000005
30
0
11
202.57000000000002
21
71.871399999999994
31
0
0
LWPOLYLINE
5
104
100
AcDbEntity
8
0
100
AcDbPolyline
90
17
70
1
43
0.0
10
116.43700000000003
20
120.43799999999999
10
116.41400000000002
20
120.44200000000002
10
116.40000000000001
20
120.41
10
116.40000000000001
20
120.39900000000002
10
116.40000000000001
20
117.59999999999999
10
113.499
20
117.59999999999999
10
110.60000000000001
20
117.59999999999999
10
110.60000000000001
20
120.39900000000002
10
110.60000000000001
20
120.41
10
110.58500000000001
20
120.44200000000002
10
110.56100000000001
20
120.43799999999999
10
110.55700000000002
20
120.41400000000002
10
110.58900000000001
20
120.39900000000002
10
110.60000000000001
20
120.39900000000002
10
116.40000000000001
20
120.39900000000002
10
116.41
20
120.39900000000002
10
116.44100000000002
20
120.41400000000002
0
LWPOLYLINE
5
105
100
AcDbEntity
8
0
100
AcDbPolyline
90
6
70
1
43
0.0
10
116.40000000000001
20
117.59100000000002
10
116.41400000000002
20
117.559
10
116.43700000000003
20
117.56299999999999
10
116.44100000000002
20
117.58600000000001
10
116.41
20
117.59999999999999
10
116.40000000000001
20
117.59999999999999
0
LWPOLYLINE
5
106
100
AcDbEntity
8
0
100
AcDbPolyline
90
6
70
1
43
0.0
10
110.60000000000001
20
117.59100000000002
10
110.60000000000001
20
117.59999999999999
10
110.58900000000001
20
117.59999999999999
10
110.55700000000002
20
117.58600000000001
10
110.56100000000001
20
117.56299999999999
10
110.58500000000001
20
117.559
0
LINE
5
107
100
AcDbEntity
8
0
100
AcDbLine
10
103.40000000000002
20
24.800599999999999
30
0
11
103.40000000000002
21
24.784000000000006
31
0
0
LWPOLYLINE
5
108
100
AcDbEntity
8
0
100
AcDbPolyline
90
23
70
1
43
0.0
10
195.36909340240982
20
120.48244222374532
10
195.35512394305812
20
120.45042887956789
10
195.35513443921508
20
120.43942888457562
10
195.35780523407081
20
117.64043015880688
10
195.35781382183561
20
117.63143016290411
10
195.37184434973707
20
117.59944353621719
10
195.39484052248207
20
117.60346548090627
10
195.3998185736958
20
117.62647024141611
10
195.36780522951832
20
117.64043970076781
10
195.35780523407081
20
117.64043015880688
10
189.55780787449294
20
117.6348958214853
10
189.55513707963721
20
120.433894547254
10
189.54413708464494
20
120.43388405109702
10
189.51212278627142
20
120.44885350999344
10
189.51709988328901
20
120.47285827004799
10
189.54009605603403
20
120.47688021473711
10
189.55512658348025
20
120.44489454224632
10
189.55513707963721
20
120.433894547254
10
192.45513575942613
20
120.43666171591479
10
195.35513443921508
20
120.43942888457562
10
195.36513443466262
20
120.4394384265365
10
195.39712010715348
20
120.45446895398271
10
195.3920972087235
20
120.47846417207634
0
LWPOLYLINE
5
109
100
AcDbEntity
8
0
100
AcDbPolyline
90
79
70
1
43
0.0
10
113.98201776639893
20
73.362761543394313
10
113.99901775865972
20
73.362777764727852
10
192.01698224134032
20
73.437222235272174
10
192.07095359087432
20
73.467273748203681
10
192.09990205108338
20
73.521301395307034
10
192.09988630684791
20
73.537801387795497
10
192.09711990154398
20
76.437000067948617
10
202.49711516699395
20
76.446923707283915
10
202.5141151592548
20
76.446939928617454
10
202.46907681755118
20
123.64721844090778
10
202.45106838346425
20
123.6472012494567
10
103.4525150543368
20
123.64720124945636
10
103.6069277684978
20
123.64748815420896
10
103.38114959857343
20
123.52366907195069
10
103.35220018416832
20
123.47064142439208
10
103.35221739145931
20
123.45260814660882
10
103.35221739145931
20
111.35185527995787
42
0.40089913957740514
10
103.45273454799405
20
111.34065024140776
10
106.75141179275842
20
111.34065024140776
42
0.38515708346822131
10
106.85477153222999
20
111.35640284342318
10
106.85477153223047
20
114.39966136282487
42
-0.3854129778941956
10
106.94771007330105
20
114.48332363565657
10
110.24920873122505
20
114.48332363565662
42
-0.40560671512649366
10
110.35221416105058
20
114.40269339285933
10
110.35221416105067
20
111.35277773754532
42
0.4142539108683167
10
110.45230987087248
20
111.25285975115885
10
111.24007181549403
20
111.252859751158
42
-0.87445557717264655
10
111.29052969379735
20
111.06117599313821
10
111.29052969379735
20
108.44712876217477
42
-0.83311723749089095
10
111.25514982161752
20
108.25362445492134
10
110.45537194711153
20
108.25362445492117
42
0.39411601427899612
10
110.37886837861576
20
108.15269222554295
10
110.3788683786165
20
105.10276321311042
42
-0.45133890030786927
10
110.25825222621548
20
104.98089900632945
10
106.95962832375511
20
104.98089900632942
42
-0.42505389892222539
10
106.8736786392173
20
105.09984885135417
10
106.87367863921733
20
108.14937387619077
42
0.43075212319684036
10
106.75675346283248
20
108.27562764980895
10
103.4549743781222
20
108.27562764980891
42
0.75562325084585935
10
103.39000508679332
20
108.06664333381261
10
103.39000508679331
20
89.583727717918975
42
0.90824995569175626
10
103.54389457961609
20
89.457435013324513
10
106.70545787274014
20
89.457435013324556
42
0.74246772949785889
10
106.87012430382686
20
89.555096389019155
10
106.87012430382686
20
92.581238990779752
42
-0.41424489790237679
10
106.9700380194645
20
92.681335889470787
10
110.2700412579607
20
92.681335889470802
42
-0.41949673273746835
10
110.38488524186185
20
92.584549813746094
10
110.38488524186185
20
89.534599411883931
42
0.40851831939585759
10
110.47311124973378
20
89.434718010282609
10
111.26090595690066
20
89.434718010281728
42
-0.87438761770811313
10
111.311348437465
20
89.243032324569427
10
111.311348437465
20
86.62894118472866
42
-0.83309151553633265
10
111.27597483556663
20
86.435436846137108
10
110.4760560727499
20
86.435436846137094
42
0.40361329676376023
10
110.39289572959161
20
86.334544711555523
10
110.39289572959171
20
83.284566219627436
42
-0.42718378263183443
10
110.27911588939557
20
83.181340204784533
10
106.97909246006787
20
83.181340204784519
42
-0.41420993043701076
10
106.87899832600492
20
83.281244740826537
10
106.87608802793066
20
86.33124335232867
42
0.41421356237330315
10
106.77599265384613
20
86.431147887195152
10
103.47599415615531
20
86.42799904009803
42
0.27820608073415359
10
103.38759712417051
20
86.37457253311058
10
103.3970640034071
20
76.45326282883741
10
103.39707984306219
20
76.436662836394476
10
103.42613135644893
20
76.382690532664327
10
103.47916024446248
20
76.352441118851019
10
103.49716023626804
20
76.352458294380639
10
113.89715550171803
20
76.362381933715938
10
113.89714471930222
20
76.373681928571671
10
113.91111446491274
20
76.405395272885656
10
113.93511846161041
20
76.401218175503843
10
113.9391410742368
20
76.377522003077516
10
113.90715549716559
20
76.36239147567683
10
113.89715550171803
20
76.362381933715938
10
113.89992190702196
20
73.463183253562804
10
113.89993765125746
20
73.446683261074341
10
113.92898916464419
20
73.392710957344207
0
LWPOLYLINE
5
110
100
AcDbEntity
8
0
100
AcDbPolyline
90
6
70
1
43
0.0
10
189.51482125281373
20
117.62085479742687
10
189.51984319704758
20
117.59785957887793
10
189.54284700336129
20
117.59388152720899
10
189.55781646225773
20
117.62589582558252
10
189.55780787449294
20
117.6348958214853
10
189.54680787950065
20
117.6348853253283
0
LWPOLYLINE
5
111
100
AcDbEntity
8
0
100
AcDbPolyline
90
20
70
1
43
0.0
10
92.816500000000005
20
331.00099999999998
10
92.799999999999997
20
331.00099999999998
10
18.799199999999999
20
331.00099999999998
10
18.781300000000002
20
331.00099999999998
10
18.728899999999999
20
330.97199999999998
10
18.700000000000003
20
330.91800000000001
10
18.700000000000003
20
330.89999999999998
10
18.700000000000003
20
231.90000000000001
10
18.700000000000003
20
231.88400000000001
10
18.728899999999999
20
231.83000000000004
10
18.781300000000002
20
231.80000000000004
10
18.799199999999999
20
231.80000000000004
10
92.799999999999997
20
231.80000000000004
10
92.816500000000005
20
231.80000000000004
10
92.870199999999997
20
231.83000000000004
10
92.900499999999994
20
231.88400000000001
10
92.900499999999994
20
231.90000000000001
10
92.900499999999994
20
330.89999999999998
10
92.900499999999994
20
330.91800000000001
10
92.870199999999997
20
330.97199999999998
0
LWPOLYLINE
5
112
100
AcDbEntity
8
0
100
AcDbPolyline
90
63
70
1
43
0.0
10
26.608499999999999
20
335.50000000000006
10
33.508400000000002
20
335.50000000000006
10
33.508400000000002
20
332.601
10
33.508400000000002
20
332.584
10
33.537300000000002
20
332.52999999999997
10
33.591099999999997
20
332.5
10
33.609000000000002
20
332.5
10
39.608800000000002
20
332.5
10
39.625399999999999
20
332.5
10
39.679400000000001
20
332.52999999999997
10
39.708300000000001
20
332.584
10
39.708300000000001
20
332.601
10
39.708300000000001
20
335.50000000000006
10
39.696999999999996
20
335.50000000000006
10
39.665599999999998
20
335.51499999999999
10
39.670900000000003
20
335.53899999999999
10
39.693100000000001
20
335.54300000000006
10
39.708300000000001
20
335.51099999999997
10
39.708300000000001
20
335.50000000000006
10
46.607900000000001
20
335.50000000000006
10
46.624499999999998
20
335.50000000000006
10
46.678100000000001
20
335.52999999999997
10
46.708500000000008
20
335.584
10
46.708500000000008
20
335.601
10
46.708500000000008
20
342.5
10
46.697499999999998
20
342.5
10
46.665799999999997
20
342.51499999999999
10
46.670000000000009
20
342.53800000000007
10
46.693300000000008
20
342.54300000000001
10
46.708500000000008
20
342.51100000000002
10
46.708500000000008
20
342.5
10
49.608000000000004
20
342.5
10
49.624500000000005
20
342.5
10
49.678199999999997
20
342.52900000000005
10
49.708500000000001
20
342.58300000000008
10
49.708500000000001
20
342.59900000000005
10
49.708500000000001
20
348.59900000000005
10
49.708500000000001
20
348.61699999999996
10
49.678199999999997
20
348.67099999999999
10
49.624500000000005
20
348.69999999999999
10
49.608000000000004
20
348.69999999999999
10
46.708500000000008
20
348.69999999999999
10
46.708500000000008
20
348.69
10
46.693300000000008
20
348.65900000000005
10
46.670000000000009
20
348.66300000000001
10
46.665799999999997
20
348.68600000000004
10
46.697499999999998
20
348.69999999999999
10
46.708500000000008
20
348.69999999999999
10
46.708500000000008
20
355.60000000000002
10
46.708500000000008
20
355.61800000000005
10
46.678100000000001
20
355.67100000000005
10
46.624499999999998
20
355.69900000000007
10
46.607900000000001
20
355.69900000000007
10
46.5899
20
355.69900000000007
10
46.542000000000002
20
355.67400000000009
10
46.537700000000008
20
355.67100000000005
10
26.5383
20
335.67100000000005
10
26.532699999999998
20
335.66699999999997
10
26.507900000000003
20
335.61699999999996
10
26.507900000000003
20
335.601
10
26.507900000000003
20
335.584
10
26.536900000000003
20
335.52999999999997
10
26.590600000000002
20
335.50000000000006
0
LWPOLYLINE
5
113
100
AcDbEntity
8
0
100
AcDbPolyline
90
6
70
1
43
0.0
10
33.549700000000001
20
335.51499999999999
10
33.5456
20
335.53899999999999
10
33.522100000000002
20
335.54300000000006
10
33.508400000000002
20
335.51099999999997
10
33.508400000000002
20
335.50000000000006
10
33.518000000000001
20
335.50000000000006
0
LWPOLYLINE
5
114
100
AcDbEntity
8
0
100
AcDbPolyline
90
6
70
1
43
0.0
10
34.885000000000005
20
355.858
10
34.900199999999998
20
355.88900000000001
10
34.900199999999998
20
355.89999999999998
10
34.889200000000002
20
355.89999999999998
10
34.857500000000002
20
355.88599999999997
10
34.861600000000003
20
355.86500000000001
0
LWPOLYLINE
5
115
100
AcDbEntity
8
0
100
AcDbPolyline
90
57
70
1
43
0.0
10
34.900199999999998
20
355.89999999999998
10
34.900199999999998
20
358.80000000000001
10
34.900199999999998
20
358.81699999999995
10
34.869900000000001
20
358.87
10
34.816099999999999
20
358.90199999999999
10
34.799599999999998
20
358.90199999999999
10
28.799600000000005
20
358.90199999999999
10
28.781700000000004
20
358.90199999999999
10
28.729300000000002
20
358.87
10
28.700399999999998
20
358.81699999999995
10
28.700399999999998
20
358.80000000000001
10
28.700399999999998
20
355.89999999999998
10
28.700399999999998
20
355.88900000000001
10
28.714200000000005
20
355.858
10
28.737600000000004
20
355.86500000000001
10
28.741800000000005
20
355.88599999999997
10
28.710000000000004
20
355.89999999999998
10
28.700399999999998
20
355.89999999999998
10
21.800600000000003
20
355.89999999999998
10
21.782699999999998
20
355.89999999999998
10
21.728900000000003
20
355.87199999999996
10
21.699999999999999
20
355.81900000000007
10
21.699999999999999
20
355.80100000000004
10
21.699999999999999
20
348.89999999999998
10
21.709600000000002
20
348.89999999999998
10
21.741299999999999
20
348.88599999999997
10
21.737200000000001
20
348.86300000000006
10
21.713799999999999
20
348.85900000000004
10
21.699999999999999
20
348.89000000000004
10
21.699999999999999
20
348.89999999999998
10
18.799199999999999
20
348.89999999999998
10
18.781300000000002
20
348.89999999999998
10
18.728899999999999
20
348.87099999999998
10
18.700000000000003
20
348.81699999999995
10
18.700000000000003
20
348.80000000000001
10
18.700000000000003
20
342.80099999999999
10
18.700000000000003
20
342.78399999999999
10
18.728899999999999
20
342.73099999999999
10
18.781300000000002
20
342.70000000000005
10
18.799199999999999
20
342.70000000000005
10
21.699999999999999
20
342.70000000000005
10
21.699999999999999
20
335.80000000000007
10
21.699999999999999
20
335.78399999999999
10
21.728900000000003
20
335.73000000000002
10
21.782699999999998
20
335.69999999999999
10
21.800600000000003
20
335.69999999999999
10
21.817100000000003
20
335.69999999999999
10
21.865300000000005
20
335.726
10
21.870799999999999
20
335.73000000000002
10
41.8705
20
355.73100000000005
10
41.874400000000009
20
355.73400000000004
10
41.900500000000001
20
355.78300000000007
10
41.900500000000001
20
355.80100000000004
10
41.900500000000001
20
355.81900000000007
10
41.8705
20
355.87199999999996
10
41.816500000000005
20
355.89999999999998
10
41.799900000000001
20
355.89999999999998
0
LWPOLYLINE
5
116
100
AcDbEntity
8
0
100
AcDbPolyline
90
6
70
1
43
0.0
10
21.699999999999999
20
342.70000000000005
10
21.709600000000002
20
342.70000000000005
10
21.741299999999999
20
342.71499999999997
10
21.737200000000001
20
342.73900000000003
10
21.713799999999999
20
342.74300000000005
10
21.699999999999999
20
342.71100000000001
0
LWPOLYLINE
5
117
100
AcDbEntity
8
0
100
AcDbPolyline
90
37
70
1
43
0.0
10
21.715031563246644
20
24.867308376664713
10
21.737600550963776
20
24.738499991366155
10
21.714200190146414
20
24.742700056038579
10
21.700400200759191
20
24.711000080758883
10
21.700400200571114
20
24.899894255654221
10
21.700400200313727
20
21.800600000000003
10
21.700400200230334
20
21.783999607440734
10
21.729299990591237
20
21.730299997035132
10
75.869600238149374
20
21.730299992538946
10
75.900000353475974
20
21.784000195801404
10
75.900000353698815
20
21.800600000000003
10
75.900000408013085
20
24.699158105980189
10
75.900000408181455
20
24.711000926516245
10
75.884795311320786
20
24.742711553065554
10
75.862842725205482
20
24.738501464595323
10
75.857115341666926
20
24.71456904914584
10
75.88925427868719
20
24.699158209257032
10
75.900000408013085
20
24.699158105980189
10
85.79999999999896
20
24.699040738163841
10
88.800021614071326
20
24.69901226833742
10
88.816172363890061
20
24.699012108932884
10
91.788444362276849
20
24.698566414817492
42
0.41425748258298684
10
91.888459357341588
20
24.798566413693237
10
91.888459357341588
20
71.801947971401304
42
0.41450794031503829
10
91.788358860903955
20
71.901947920903638
10
88.800000000005497
20
71.898944725187761
10
85.800000000006122
20
71.899007504268369
10
11.800600000000616
20
71.900645350511851
10
8.7991999880768148
20
71.900659287420567
10
5.8991783599106018
20
71.899988533645441
42
0.41414581993909561
10
5.7992014891780066
20
71.799988536320257
10
5.7992014891779977
20
24.99988251100957
42
0.41421443067949898
10
5.8992017856362704
20
24.89988251101002
10
8.7994738138760002
20
24.899891109106399
10
11.80059999999996
20
24.899894255657685
10
21.700400200571114
20
24.899894255654221
10
21.783357839931622
20
24.900369034884836
0
LWPOLYLINE
5
118
100
AcDbEntity
8
0
100
AcDbPolyline
90
17
70
1
43
0.0
10
72.888999999999996
20
68.699200000000005
10
72.900000000000006
20
68.699200000000005
10
72.900000000000006
20
65.900700000000001
10
78.700299999999999
20
65.900700000000001
10
78.709900000000005
20
65.900700000000001
10
78.74160000000002
20
65.886899999999997
10
78.737399999999994
20
65.86330000000001
10
78.714100000000002
20
65.859399999999994
10
78.700299999999999
20
65.890799999999999
10
78.700299999999999
20
65.900700000000001
10
78.700299999999999
20
68.699200000000005
10
75.80080000000001
20
68.699200000000005
10
72.900000000000006
20
68.699200000000005
10
72.900000000000006
20
68.710499999999996
10
72.884799999999998
20
68.741900000000001
10
72.862899999999996
20
68.738
10
72.857299999999995
20
68.714399999999998
0
LINE
5
119
100
AcDbEntity
8
0
100
AcDbLine
10
21.729299990591237
20
21.730299997035132
30
0
11
21.781699993851284
21
21.699999995126134
31
0
0
LINE
5
120
100
AcDbEntity
8
0
100
AcDbLine
10
21.781699993851284
20
21.699999995126134
30
0
11
21.799600000000005
21
21.699999995123164
31
0
0
LINE
5
121
100
AcDbEntity
8
0
100
AcDbLine
10
75.80080000000001
20
21.699999913335063
30
0
11
75.817400101472018
21
21.699999913316393
31
0
0
LINE
5
122
100
AcDbEntity
8
0
100
AcDbLine
10
75.817400101472018
20
21.699999913316393
30
0
11
75.869600238149374
21
21.730299992538946
31
0
0
LINE
5
123
100
AcDbEntity
8
0
100
AcDbLine
10
202.52210446510981
20
123.61826902650265
30
0
11
202.46907681755118
21
123.64721844090778
31
0
0
LINE
5
124
100
AcDbEntity
8
0
100
AcDbLine
10
202.55315502338999
20
123.56529863070944
30
0
11
202.52210446510981
21
123.61826902650265
31
0
0
LINE
5
125
100
AcDbEntity
8
0
100
AcDbLine
10
202.55317219891961
20
123.54729863890387
30
0
11
202.55315502338999
21
123.56529863070944
31
0
0
LWPOLYLINE
5
126
100
AcDbEntity
8
0
100
AcDbPolyline
90
6
70
1
43
0.0
10
18.889200000000002
20
65.900700000000001
10
18.857500000000002
20
65.886899999999997
10
18.861600000000003
20
65.86330000000001
10
18.885100000000001
20
65.859399999999994
10
18.900200000000002
20
65.890799999999999
10
18.900200000000002
20
65.900700000000001
0
LWPOLYLINE
5
127
100
AcDbEntity
8
0
100
AcDbPolyline
90
17
70
1
43
0.0
10
21.799600000000005
20
65.900700000000001
10
18.900200000000002
20
65.900700000000001
10
18.900200000000002
20
68.699200000000005
10
18.900200000000002
20
68.710499999999996
10
18.885100000000001
20
68.741900000000001
10
18.861600000000003
20
68.738
10
18.857500000000002
20
68.714399999999998
10
18.889200000000002
20
68.699200000000005
10
18.900200000000002
20
68.699200000000005
10
24.700400000000005
20
68.699200000000005
10
24.710000000000001
20
68.699200000000005
10
24.741700000000005
20
68.714399999999998
10
24.737600000000004
20
68.738
10
24.714100000000006
20
68.741900000000001
10
24.700400000000005
20
68.710499999999996
10
24.700400000000005
20
68.699200000000005
10
24.700400000000005
20
65.900700000000001
0
LWPOLYLINE
5
128
100
AcDbEntity
8
0
100
AcDbPolyline
90
6
70
1
43
0.0
10
24.700400000000005
20
65.900700000000001
10
24.700400000000005
20
65.890799999999999
10
24.714100000000006
20
65.859399999999994
10
24.737600000000004
20
65.86330000000001
10
24.741700000000005
20
65.886899999999997
10
24.710000000000001
20
65.900700000000001
0
LWPOLYLINE
5
129
100
AcDbEntity
8
0
100
AcDbPolyline
90
6
70
1
43
0.0
10
72.900000000000006
20
65.900700000000001
10
72.888999999999996
20
65.900700000000001
10
72.857299999999995
20
65.886899999999997
10
72.862899999999996
20
65.86330000000001
10
72.884799999999998
20
65.859399999999994
10
72.900000000000006
20
65.890799999999999
0
LWPOLYLINE
5
130
100
AcDbEntity
8
0
100
AcDbPolyline
90
6
70
1
43
0.0
10
78.74160000000002
20
68.714399999999998
10
78.737399999999994
20
68.738
10
78.714100000000002
20
68.741900000000001
10
78.700299999999999
20
68.710499999999996
10
78.700299999999999
20
68.699200000000005
10
78.709900000000005
20
68.699200000000005
0
LWPOLYLINE
5
131
100
AcDbEntity
8
0
100
AcDbPolyline
90
13
70
1
43
0.0
10
32.802149736624024
20
138.79100219473827
10
32.802149262653856
20
138.80000219472581
10
35.604636992638291
20
138.80014978312565
10
35.604637340805155
20
138.79035617906555
10
35.604637340805169
20
216.60014989097334
10
35.598152049934285
20
216.60014954949318
10
32.79805205381723
20
216.60000208683942
10
32.786952053832621
20
216.6000015022762
10
32.755351263926144
20
216.61499983809347
10
32.759450000000001
20
216.63900005397991
10
32.759449999999994
20
138.78599994602007
10
32.763551211251425
20
138.76300016197169
10
32.786951421872388
20
138.75900139429967
0
LINE
5
132
100
AcDbEntity
8
0
100
AcDbLine
10
32.802149262653856
20
138.80000219472581
30
0
11
32.791049262669247
21
138.80000161016261
31
0
0
LINE
5
133
100
AcDbEntity
8
0
100
AcDbLine
10
32.791049262669247
20
138.80000161016261
30
0
11
32.759449999999994
21
138.78599994602007
31
0
0
LINE
5
134
100
AcDbEntity
8
0
100
AcDbLine
10
35.604637340805155
20
138.79035617906555
30
0
11
35.61795684778091
21
138.75947344162932
31
0
0
LINE
5
135
100
AcDbEntity
8
0
100
AcDbLine
10
35.6396512072631
20
138.76315162704026
30
0
11
35.643549996000573
21
138.78615183239543
31
0
0
LINE
5
136
100
AcDbEntity
8
0
100
AcDbLine
10
35.61174925875774
20
138.80015015768146
30
0
11
35.604636992638291
21
138.80014978312565
31
0
0
LINE
5
137
100
AcDbEntity
8
0
100
AcDbLine
10
35.61795684778091
20
138.75947344162932
30
0
11
35.6396512072631
21
138.76315162704026
31
0
0
LINE
5
138
100
AcDbEntity
8
0
100
AcDbLine
10
35.643549996000573
20
138.78615183239543
30
0
11
35.61174925875774
21
138.80015015768146
31
0
0
LWPOLYLINE
5
139
100
AcDbEntity
8
0
100
AcDbPolyline
90
6
70
1
43
0.0
10
85.857299999999995
20
76.4148
10
85.88900000000001
20
76.399699999999996
10
85.90000000000002
20
76.399699999999996
10
85.90000000000002
20
76.411000000000001
10
85.884800000000013
20
76.442700000000002
10
85.862899999999996
20
76.438500000000005
0
LWPOLYLINE
5
140
100
AcDbEntity
8
0
100
AcDbPolyline
90
28
70
1
43
0.0
10
98.816199999999995
20
76.399699999999996
10
98.870199999999997
20
76.430000000000007
10
98.900500000000008
20
123.50000000000001
10
98.900500000000008
20
123.51799999999999
10
98.870199999999997
20
123.57100000000001
10
98.816199999999995
20
123.59999999999999
10
98.800000000000011
20
123.59999999999999
10
95.799999999999997
20
123.59999999999999
10
21.800600000000003
20
123.59999999999999
10
18.799199999999999
20
123.59999999999999
10
18.781300000000002
20
123.59999999999999
10
18.781300000000002
20
76.399699999999996
10
18.799199999999999
20
76.399699999999996
10
21.800600000000003
20
76.399699999999996
10
31.700400000000002
20
76.399699999999996
10
31.710000000000001
20
76.399699999999996
10
31.741700000000002
20
76.4148
10
31.7376
20
76.438500000000005
10
31.714200000000005
20
76.442700000000002
10
31.700400000000002
20
76.411000000000001
10
31.700400000000002
20
76.399699999999996
10
31.700400000000002
20
73.500500000000002
10
31.700400000000002
20
73.483999999999995
10
85.90000000000002
20
73.483999999999995
10
85.90000000000002
20
73.500500000000002
10
85.90000000000002
20
76.399699999999996
10
95.799999999999997
20
76.399699999999996
10
98.800000000000011
20
76.399699999999996
0
LINE
5
141
100
AcDbEntity
8
0
100
AcDbLine
10
18.781300000000002
20
123.59999999999999
30
0
11
18.728899999999999
21
123.57100000000001
31
0
0
LINE
5
142
100
AcDbEntity
8
0
100
AcDbLine
10
98.870199999999997
20
76.430000000000007
30
0
11
98.900500000000008
21
76.483999999999995
31
0
0
LINE
5
143
100
AcDbEntity
8
0
100
AcDbLine
10
18.728899999999999
20
123.57100000000001
30
0
11
18.700000000000003
21
123.51799999999999
31
0
0
LINE
5
144
100
AcDbEntity
8
0
100
AcDbLine
10
18.700000000000003
20
123.51799999999999
30
0
11
18.700000000000003
21
123.50000000000001
31
0
0
LWPOLYLINE
5
145
100
AcDbEntity
8
0
100
AcDbPolyline
90
44
70
1
43
0.0
10
118.741
20
131.28299999999999
10
118.69700000000002
20
131.334
10
118.52500000000001
20
131.619
10
118.423
20
131.935
10
118.41300000000001
20
132.001
10
118.40400000000001
20
132.06799999999998
10
118.41300000000001
20
132.40100000000001
10
118.49700000000001
20
132.72200000000001
10
118.52600000000002
20
132.78200000000001
10
118.55400000000002
20
132.84399999999999
10
118.741
20
133.11700000000002
10
118.98700000000002
20
133.34200000000004
10
119.04299999999999
20
133.37799999999999
10
119.09999999999999
20
133.41499999999999
10
119.404
20
133.54399999999998
10
119.70100000000002
20
133.601
10
119.80000000000001
20
133.601
10
119.89800000000001
20
133.601
10
120.19400000000002
20
133.54399999999998
10
120.5
20
133.41499999999999
10
120.556
20
133.37799999999999
10
120.61300000000001
20
133.34200000000004
10
120.85700000000003
20
133.11700000000002
10
121.044
20
132.84399999999999
10
121.07300000000001
20
132.78200000000001
10
121.10100000000001
20
132.72200000000001
10
121.185
20
132.40100000000001
10
121.196
20
132.06799999999998
10
121.18600000000001
20
132.001
10
121.17600000000002
20
131.935
10
121.07300000000001
20
131.619
10
120.90200000000002
20
131.334
10
120.85799999999999
20
131.28299999999999
10
120.81400000000001
20
131.233
10
120.556
20
131.02200000000005
10
120.259
20
130.87600000000003
10
120.19500000000001
20
130.857
10
120.13
20
130.839
10
119.80000000000001
20
130.80000000000001
10
119.46899999999999
20
130.839
10
119.40600000000002
20
130.857
10
119.34100000000001
20
130.87600000000003
10
119.04200000000002
20
131.02200000000005
10
118.786
20
131.233
0
LWPOLYLINE
5
146
100
AcDbEntity
8
0
100
AcDbPolyline
90
110
70
1
43
0.0
10
20.779399999999999
20
127.181
10
21.475300000000001
20
126.56999999999999
10
22.0486
20
126.16900000000001
10
22.2498
20
126.05200000000002
10
22.449600000000004
20
125.93600000000002
10
23.083500000000004
20
125.64
10
23.961300000000001
20
125.34200000000001
10
24.870800000000003
20
125.16200000000001
10
25.566800000000001
20
125.09999999999999
10
25.799600000000002
20
125.09999999999999
10
35.799900000000008
20
125.09999999999999
10
45.800400000000003
20
125.09999999999999
10
45.817000000000007
20
125.09999999999999
10
45.870600000000003
20
125.13
10
45.899600000000007
20
125.184
10
45.899600000000007
20
125.20000000000002
10
45.899600000000007
20
128.09999999999999
10
99.699600000000004
20
128.09999999999999
10
99.699600000000004
20
125.20000000000002
10
99.699600000000004
20
125.184
10
99.728500000000011
20
125.13
10
99.782500000000013
20
125.09999999999999
10
99.8001
20
125.09999999999999
10
109.79900000000001
20
125.09999999999999
10
119.80000000000001
20
125.09999999999999
10
120.03100000000002
20
125.09999999999999
10
120.727
20
125.16200000000001
10
121.637
20
125.34200000000001
10
122.51400000000001
20
125.64
10
123.148
20
125.93600000000002
10
123.34899999999999
20
126.05200000000002
10
123.54900000000001
20
126.16799999999999
10
124.123
20
126.56999999999999
10
124.81999999999999
20
127.181
10
125.43000000000001
20
127.876
10
125.83300000000001
20
128.44999999999999
10
125.94900000000001
20
128.65000000000003
10
126.06400000000001
20
128.851
10
126.35899999999999
20
129.48599999999999
10
126.65799999999999
20
130.36200000000002
10
126.83900000000001
20
131.27200000000002
10
126.90100000000001
20
131.96799999999999
10
126.90100000000001
20
132.19899999999998
10
126.90100000000001
20
223.19900000000004
10
126.90100000000001
20
223.43299999999999
10
126.83900000000001
20
224.13
10
126.65799999999999
20
225.03799999999998
10
126.35899999999999
20
225.916
10
126.06400000000001
20
226.55100000000002
10
125.94900000000001
20
226.751
10
125.83200000000002
20
226.952
10
125.43000000000001
20
227.52500000000001
10
124.81999999999999
20
228.221
10
124.123
20
228.83099999999999
10
123.54900000000001
20
229.233
10
123.34899999999999
20
229.34799999999998
10
123.148
20
229.465
10
122.51400000000001
20
229.76200000000003
10
121.637
20
230.05900000000003
10
120.727
20
230.24000000000001
10
120.03100000000002
20
230.30000000000001
10
119.80000000000001
20
230.30000000000001
10
109.79900000000001
20
230.30000000000001
10
99.8001
20
230.30000000000001
10
99.782500000000013
20
230.30000000000001
10
99.728500000000011
20
230.27100000000002
10
99.699600000000004
20
230.21799999999999
10
99.699600000000004
20
230.19999999999999
10
99.699600000000004
20
227.30000000000004
10
99.699600000000004
20
227.29100000000003
10
99.713300000000018
20
227.25900000000001
10
99.737000000000009
20
227.26300000000003
10
45.862499999999997
20
227.26300000000003
10
45.856900000000003
20
227.28700000000003
10
45.888599999999997
20
227.30000000000004
10
45.899600000000007
20
227.30000000000004
10
45.899600000000007
20
230.19999999999999
10
45.899600000000007
20
230.21799999999999
10
45.870600000000003
20
230.27100000000002
10
45.817000000000007
20
230.30000000000001
10
45.800400000000003
20
230.30000000000001
10
35.799900000000008
20
230.30000000000001
10
25.799600000000002
20
230.30000000000001
10
25.566800000000001
20
230.30000000000001
10
24.870800000000003
20
230.24000000000001
10
23.961300000000001
20
230.05900000000003
10
23.083500000000004
20
229.76200000000003
10
22.449600000000004
20
229.465
10
22.2498
20
229.34799999999998
10
22.0486
20
229.233
10
21.475300000000001
20
228.83099999999999
10
20.779399999999999
20
228.221
10
20.1676
20
227.52500000000001
10
19.7666
20
226.952
10
19.6508
20
226.751
10
19.5351
20
226.55000000000001
10
19.238800000000001
20
225.916
10
18.941099999999999
20
225.03799999999998
10
18.7606
20
224.13
10
18.700000000000003
20
223.43299999999999
10
18.700000000000003
20
223.19900000000004
10
18.700000000000003
20
132.19899999999998
10
18.700000000000003
20
131.96799999999999
10
18.7606
20
131.27200000000002
10
18.941099999999999
20
130.36200000000002
10
19.238800000000001
20
129.48599999999999
10
19.5337
20
128.851
10
19.6508
20
128.65000000000003
10
19.7666
20
128.44999999999999
10
20.1676
20
127.876
0
LWPOLYLINE
5
147
100
AcDbEntity
8
0
100
AcDbPolyline
90
44
70
1
43
0.0
10
24.436700000000002
20
131.87
10
24.3996
20
132.20099999999999
10
24.436700000000002
20
132.53200000000001
10
24.456000000000003
20
132.595
10
24.474
20
132.66
10
24.621400000000001
20
132.95699999999999
10
24.8322
20
133.215
10
24.883299999999998
20
133.25799999999998
10
24.9329
20
133.30200000000002
10
25.218100000000003
20
133.47399999999999
10
25.533700000000003
20
133.57599999999999
10
25.601199999999999
20
133.58600000000001
10
25.667300000000001
20
133.595
10
25.998100000000001
20
133.58600000000001
10
26.319200000000002
20
133.50200000000001
10
26.381200000000003
20
133.47399999999999
10
26.441800000000004
20
133.446
10
26.715999999999998
20
133.25899999999999
10
26.9407
20
133.01400000000001
10
26.977900000000005
20
132.95699999999999
10
27.013700000000004
20
132.90100000000001
10
27.141800000000003
20
132.595
10
27.1997
20
132.29900000000001
10
27.1997
20
132.19899999999998
10
27.1997
20
132.102
10
27.141800000000003
20
131.80700000000002
10
27.013700000000004
20
131.499
10
26.977900000000005
20
131.44299999999998
10
26.9407
20
131.386
10
26.715999999999998
20
131.142
10
26.441800000000004
20
130.95500000000001
10
26.381200000000003
20
130.92600000000002
10
26.319200000000002
20
130.899
10
25.998100000000001
20
130.815
10
25.667300000000001
20
130.80500000000001
10
25.601199999999999
20
130.815
10
25.533700000000003
20
130.82400000000001
10
25.218100000000003
20
130.92700000000002
10
24.9329
20
131.09800000000001
10
24.883299999999998
20
131.142
10
24.8322
20
131.18600000000001
10
24.621400000000001
20
131.44299999999998
10
24.474
20
131.74200000000002
10
24.456000000000003
20
131.80500000000001
0
LINE
5
148
100
AcDbEntity
8
0
100
AcDbLine
10
18.728899999999999
20
76.430000000000007
30
0
11
18.781300000000002
21
76.399699999999996
31
0
0
LINE
5
149
100
AcDbEntity
8
0
100
AcDbLine
10
18.700000000000003
20
76.500600000000006
30
0
11
18.700000000000003
21
76.483999999999995
31
0
0
LINE
5
150
100
AcDbEntity
8
0
100
AcDbLine
10
18.700000000000003
20
76.483999999999995
30
0
11
18.728899999999999
21
76.430000000000007
31
0
0
LINE
5
151
100
AcDbEntity
8
0
100
AcDbLine
10
99.737000000000009
20
227.26300000000003
30
0
11
99.740900000000011
21
227.28700000000003
31
0
0
LINE
5
152
100
AcDbEntity
8
0
100
AcDbLine
10
99.70950000000002
20
227.30000000000004
30
0
11
99.699600000000004
21
227.30000000000004
31
0
0
LINE
5
153
100
AcDbEntity
8
0
100
AcDbLine
10
99.740900000000011
20
227.28700000000003
30
0
11
99.70950000000002
21
227.30000000000004
31
0
0
LWPOLYLINE
5
154
100
AcDbEntity
8
0
100
AcDbPolyline
90
19
70
1
43
0.0
10
112.84100000000002
20
138.786
10
112.80900000000001
20
138.80000000000001
10
112.81245794961755
20
138.80000000000001
10
110.00100000000002
20
138.80000000000001
10
110.00100000000002
20
138.791
10
109.98600000000002
20
138.75899999999999
10
109.96200000000002
20
138.76300000000001
10
109.95800000000001
20
138.786
10
109.98899999999999
20
138.80000000000001
10
110.00100000000002
20
138.80000000000001
10
110.00100000000002
20
216.61100000000002
10
110.00100000000002
20
216.59999999999999
10
112.79899999999999
20
216.59999999999999
10
112.8017508402705
20
216.59999999999999
10
112.81245794961757
20
216.60501916421697
10
112.81245794961755
20
138.80000000000001
10
112.81245411377265
20
138.76024773994823
10
112.813
20
138.75899999999999
10
112.83700000000002
20
138.76300000000001
0
LINE
5
155
100
AcDbEntity
8
0
100
AcDbLine
10
85.817400000000021
20
73.400000000000006
30
0
11
85.86960000000002
21
73.430000000000007
31
0
0
LINE
5
156
100
AcDbEntity
8
0
100
AcDbLine
10
85.80080000000001
20
73.400000000000006
30
0
11
85.817400000000021
21
73.400000000000006
31
0
0
LINE
5
157
100
AcDbEntity
8
0
100
AcDbLine
10
85.86960000000002
20
73.430000000000007
30
0
11
85.90000000000002
21
73.483999999999995
31
0
0
LINE
5
158
100
AcDbEntity
8
0
100
AcDbLine
10
98.900500000000008
20
76.483999999999995
30
0
11
98.900500000000008
21
76.500600000000006
31
0
0
LWPOLYLINE
5
159
100
AcDbEntity
8
0
100
AcDbPolyline
90
11
70
1
43
0.0
10
88.74160000000002
20
117.58600000000001
10
88.709900000000005
20
117.59999999999999
10
88.700299999999999
20
117.59999999999999
10
82.900000000000006
20
117.59999999999999
10
82.900000000000006
20
120.39900000000002
10
85.80080000000001
20
120.39900000000002
10
88.700299999999999
20
120.39900000000002
10
88.700299999999999
20
117.59999999999999
10
88.700299999999999
20
117.59100000000002
10
88.714100000000002
20
117.559
10
88.737399999999994
20
117.56299999999999
0
LWPOLYLINE
5
160
100
AcDbEntity
8
0
100
AcDbPolyline
90
6
70
1
43
0.0
10
82.884799999999998
20
120.44200000000002
10
82.862899999999996
20
120.43799999999999
10
82.857299999999995
20
120.41400000000002
10
82.888999999999996
20
120.39900000000002
10
82.900000000000006
20
120.39900000000002
10
82.900000000000006
20
120.41
0
LWPOLYLINE
5
161
100
AcDbEntity
8
0
100
AcDbPolyline
90
23
70
1
43
0.0
10
34.7376
20
117.56299999999999
10
34.741700000000002
20
117.58600000000001
10
34.710000000000001
20
117.59999999999999
10
34.700400000000002
20
117.59999999999999
10
34.700400000000002
20
120.39900000000002
10
34.700400000000002
20
120.41
10
34.714100000000002
20
120.44200000000002
10
34.7376
20
120.43799999999999
10
34.741700000000002
20
120.41400000000002
10
34.710000000000001
20
120.39900000000002
10
34.700400000000002
20
120.39900000000002
10
28.900200000000002
20
120.39900000000002
10
28.900200000000002
20
117.59999999999999
10
28.900200000000002
20
117.59100000000002
10
28.885100000000001
20
117.559
10
28.861600000000003
20
117.56299999999999
10
28.857500000000002
20
117.58600000000001
10
28.889200000000002
20
117.59999999999999
10
28.900200000000002
20
117.59999999999999
10
31.799600000000005
20
117.59999999999999
10
34.700400000000002
20
117.59999999999999
10
34.700400000000002
20
117.59100000000002
10
34.714100000000002
20
117.559
0
LWPOLYLINE
5
162
100
AcDbEntity
8
0
100
AcDbPolyline
90
6
70
1
43
0.0
10
88.737399999999994
20
120.43799999999999
10
88.714100000000002
20
120.44200000000002
10
88.700299999999999
20
120.41
10
88.700299999999999
20
120.39900000000002
10
88.709900000000005
20
120.39900000000002
10
88.74160000000002
20
120.41400000000002
0
LWPOLYLINE
5
163
100
AcDbEntity
8
0
100
AcDbPolyline
90
6
70
1
43
0.0
10
28.889200000000002
20
120.39900000000002
10
28.900200000000002
20
120.39900000000002
10
28.900200000000002
20
120.41
10
28.885100000000001
20
120.44200000000002
10
28.861600000000003
20
120.43799999999999
10
28.857500000000002
20
120.41400000000002
0
LINE
5
164
100
AcDbEntity
8
0
100
AcDbLine
10
31.781700000000001
20
73.400000000000006
30
0
11
31.799600000000005
21
73.400000000000006
31
0
0
LWPOLYLINE
5
165
100
AcDbEntity
8
0
100
AcDbPolyline
90
6
70
1
43
0.0
10
82.862899999999996
20
117.56299999999999
10
82.884799999999998
20
117.559
10
82.900000000000006
20
117.59100000000002
10
82.900000000000006
20
117.59999999999999
10
82.888999999999996
20
117.59999999999999
10
82.857299999999995
20
117.58600000000001
0
LINE
5
166
100
AcDbEntity
8
0
100
AcDbLine
10
31.729300000000002
20
73.430000000000007
30
0
11
31.781700000000001
21
73.400000000000006
31
0
0
LINE
5
167
100
AcDbEntity
8
0
100
AcDbLine
10
31.700400000000002
20
73.483999999999995
30
0
11
31.729300000000002
21
73.430000000000007
31
0
0
LINE
5
168
100
AcDbEntity
8
0
100
AcDbLine
10
45.862499999999997
20
227.26300000000003
30
0
11
45.884399999999999
21
227.25900000000001
31
0
0
LINE
5
169
100
AcDbEntity
8
0
100
AcDbLine
10
45.884399999999999
20
227.25900000000001
30
0
11
45.899600000000007
21
227.29100000000003
31
0
0
LINE
5
170
100
AcDbEntity
8
0
100
AcDbLine
10
45.899600000000007
20
227.29100000000003
30
0
11
45.899600000000007
21
227.30000000000004
31
0
0
LINE
5
171
100
AcDbEntity
8
0
100
AcDbLine
10
192.00099999999998
20
21.699999999999999
30
0
11
192.01700000000002
21
21.699999999999999
31
0
0
LWPOLYLINE
5
172
100
AcDbEntity
8
0
100
AcDbPolyline
90
6
70
1
43
0.0
10
192.10000000000002
20
24.6999
10
192.10000000000002
20
24.710999999999999
10
192.08500000000001
20
24.742700000000003
10
192.06299999999999
20
24.738500000000002
10
192.05700000000004
20
24.715100000000003
10
192.08900000000003
20
24.6999
0
LINE
5
173
100
AcDbEntity
8
0
100
AcDbLine
10
202.601
20
24.784000000000006
30
0
11
202.601
21
24.800599999999999
31
0
0
LWPOLYLINE
5
174
100
AcDbEntity
8
0
100
AcDbPolyline
90
6
70
1
43
0.0
10
189.56200000000001
20
65.86330000000001
10
189.58500000000001
20
65.859399999999994
10
189.60000000000002
20
65.890799999999999
10
189.60000000000002
20
65.900700000000001
10
189.58900000000003
20
65.900700000000001
10
189.55700000000004
20
65.886899999999997
0
LWPOLYLINE
5
175
100
AcDbEntity
8
0
100
AcDbPolyline
90
23
70
1
43
0.0
10
189.55700000000004
20
68.714399999999998
10
189.58900000000003
20
68.699200000000005
10
189.60000000000002
20
68.699200000000005
10
189.60000000000002
20
65.900700000000001
10
195.40000000000003
20
65.900700000000001
10
195.40000000000003
20
65.890799999999999
10
195.41400000000004
20
65.859399999999994
10
195.43700000000001
20
65.86330000000001
10
195.44200000000004
20
65.886899999999997
10
195.41
20
65.900700000000001
10
195.40000000000003
20
65.900700000000001
10
195.40000000000003
20
68.699200000000005
10
195.40000000000003
20
68.710499999999996
10
195.41400000000004
20
68.741900000000001
10
195.43700000000001
20
68.738
10
195.44200000000004
20
68.714399999999998
10
195.41
20
68.699200000000005
10
195.40000000000003
20
68.699200000000005
10
192.5
20
68.699200000000005
10
189.60000000000002
20
68.699200000000005
10
189.60000000000002
20
68.710499999999996
10
189.58500000000001
20
68.741900000000001
10
189.56200000000001
20
68.738
0
LWPOLYLINE
5
176
100
AcDbEntity
8
0
100
AcDbPolyline
90
44
70
1
43
0.0
10
120.066
20
224.57599999999999
10
120.38
20
224.47400000000002
10
120.66500000000002
20
224.30200000000002
10
120.71600000000002
20
224.25799999999998
10
120.76700000000002
20
224.21500000000003
10
120.97700000000002
20
223.95700000000002
10
121.12400000000001
20
223.66
10
121.143
20
223.595
10
121.16100000000002
20
223.53200000000001
10
121.20000000000002
20
223.20099999999999
10
121.16100000000002
20
222.87000000000003
10
121.143
20
222.80500000000004
10
121.12400000000001
20
222.74200000000005
10
120.97700000000002
20
222.44299999999998
10
120.76700000000002
20
222.18700000000001
10
120.71600000000002
20
222.14200000000002
10
120.66500000000002
20
222.09800000000001
10
120.38
20
221.92800000000003
10
120.066
20
221.82400000000001
10
119.999
20
221.815
10
119.93200000000002
20
221.80500000000001
10
119.60000000000001
20
221.815
10
119.27900000000001
20
221.899
10
119.21799999999999
20
221.92599999999999
10
119.15600000000001
20
221.95500000000004
10
118.88300000000001
20
222.14200000000002
10
118.65899999999999
20
222.387
10
118.62299999999999
20
222.44299999999998
10
118.58600000000001
20
222.49900000000002
10
118.45600000000002
20
222.80700000000002
10
118.40000000000002
20
223.10200000000003
10
118.40000000000002
20
223.19900000000004
10
118.40000000000002
20
223.29900000000004
10
118.45600000000002
20
223.595
10
118.58600000000001
20
223.90100000000001
10
118.62299999999999
20
223.95700000000002
10
118.65899999999999
20
224.01400000000001
10
118.88300000000001
20
224.25900000000001
10
119.15600000000001
20
224.447
10
119.21799999999999
20
224.47400000000002
10
119.27900000000001
20
224.50200000000001
10
119.60000000000001
20
224.58600000000001
10
119.93200000000002
20
224.59500000000003
10
119.999
20
224.58600000000001
0
LINE
5
177
100
AcDbEntity
8
0
100
AcDbLine
10
110.00100000000002
20
216.61100000000002
30
0
11
109.98600000000002
21
216.643
31
0
0
LINE
5
178
100
AcDbEntity
8
0
100
AcDbLine
10
112.80592515732482
20
216.64417914044583
30
0
11
112.813
21
216.643
31
0
0
LINE
5
179
100
AcDbEntity
8
0
100
AcDbLine
10
112.813
20
216.643
30
0
11
112.79899999999999
21
216.61100000000002
31
0
0
LINE
5
180
100
AcDbEntity
8
0
100
AcDbLine
10
112.79899999999999
20
216.61100000000002
30
0
11
112.79899999999999
21
216.59999999999999
31
0
0
LWPOLYLINE
5
181
100
AcDbEntity
8
0
100
AcDbPolyline
90
44
70
1
43
0.0
10
26.258500000000002
20
224.52500000000001
10
26.556200000000004
20
224.37799999999999
10
26.813900000000004
20
224.16800000000001
10
26.858000000000004
20
224.11700000000002
10
26.902100000000004
20
224.06800000000001
10
27.072900000000004
20
223.78200000000004
10
27.176300000000001
20
223.46700000000001
10
27.185900000000004
20
223.399
10
27.195599999999999
20
223.33300000000003
10
27.184600000000003
20
223.001
10
27.100500000000004
20
222.68000000000001
10
27.072900000000004
20
222.61799999999999
10
27.045400000000001
20
222.55700000000004
10
26.858000000000004
20
222.28300000000002
10
26.6127
20
222.06000000000003
10
26.556200000000004
20
222.02200000000005
10
26.499700000000001
20
221.98700000000002
10
26.1938
20
221.857
10
25.897500000000004
20
221.80000000000004
10
25.799600000000002
20
221.80000000000004
10
25.700400000000002
20
221.80000000000004
10
25.4041
20
221.857
10
25.099599999999999
20
221.98700000000002
10
25.043100000000003
20
222.02200000000005
10
24.986600000000003
20
222.06000000000003
10
24.741300000000003
20
222.28300000000002
10
24.553899999999999
20
222.55700000000004
10
24.526299999999999
20
222.61799999999999
10
24.497400000000003
20
222.68000000000001
10
24.413300000000003
20
223.001
10
24.405100000000001
20
223.33300000000003
10
24.414700000000003
20
223.399
10
24.423000000000002
20
223.46700000000001
10
24.526299999999999
20
223.78200000000004
10
24.698600000000003
20
224.06800000000001
10
24.742700000000003
20
224.11700000000002
10
24.785400000000003
20
224.16800000000001
10
25.043100000000003
20
224.37799999999999
10
25.340699999999998
20
224.52500000000001
10
25.4055
20
224.54300000000003
10
25.468900000000005
20
224.56200000000001
10
25.799600000000002
20
224.601
10
26.130400000000002
20
224.56200000000001
10
26.1951
20
224.54300000000003
0
LINE
5
182
100
AcDbEntity
8
0
100
AcDbLine
10
35.598151470637404
20
216.61114954947791
30
0
11
35.598152049934285
21
216.60014954949318
31
0
0
LINE
5
183
100
AcDbEntity
8
0
100
AcDbLine
10
112.81245794961757
20
216.60501916421697
30
0
11
112.80592515732482
21
216.64417914044583
31
0
0
LINE
5
184
100
AcDbEntity
8
0
100
AcDbLine
10
109.95800000000001
20
216.61500000000004
30
0
11
109.98899999999999
21
216.59999999999999
31
0
0
LINE
5
185
100
AcDbEntity
8
0
100
AcDbLine
10
109.98600000000002
20
216.643
30
0
11
109.96200000000002
21
216.63900000000001
31
0
0
LINE
5
186
100
AcDbEntity
8
0
100
AcDbLine
10
109.96200000000002
20
216.63900000000001
30
0
11
109.95800000000001
21
216.61500000000004
31
0
0
LINE
5
187
100
AcDbEntity
8
0
100
AcDbLine
10
32.79805205381723
20
216.60000208683942
30
0
11
32.798051474520349
21
216.61100208682416
31
0
0
LINE
5
188
100
AcDbEntity
8
0
100
AcDbLine
10
109.98899999999999
20
216.59999999999999
30
0
11
110.00100000000002
21
216.59999999999999
31
0
0
LINE
5
189
100
AcDbEntity
8
0
100
AcDbLine
10
35.604637340805169
20
216.60014989097334
30
0
11
35.639236496111828
21
216.61647290846273
31
0
0
LINE
5
190
100
AcDbEntity
8
0
100
AcDbLine
10
35.635549996011676
20
216.63915151904848
30
0
11
35.611949785390991
21
216.64315027618781
31
0
0
LINE
5
191
100
AcDbEntity
8
0
100
AcDbLine
10
35.611949785390991
20
216.64315027618781
30
0
11
35.598151470637404
21
216.61114954947791
31
0
0
LINE
5
192
100
AcDbEntity
8
0
100
AcDbLine
10
32.798051474520349
20
216.61100208682416
30
0
11
32.782849789314142
21
216.64300128629679
31
0
0
LINE
5
193
100
AcDbEntity
8
0
100
AcDbLine
10
35.639236496111828
20
216.61647290846273
30
0
11
35.635549996011676
21
216.63915151904848
31
0
0
LINE
5
194
100
AcDbEntity
8
0
100
AcDbLine
10
32.782849789314142
20
216.64300128629679
30
0
11
32.759450000000001
21
216.63900005397991
31
0
0
LWPOLYLINE
5
195
100
AcDbEntity
8
0
100
AcDbPolyline
90
6
70
1
43
0.0
10
192.08207887794077
20
76.47998573543174
10
192.06008289557974
20
76.475764745029792
10
192.05410551275861
20
76.452059030642573
10
192.08611990655169
20
76.436989571791642
10
192.09711990154398
20
76.437000067948617
10
192.09710911912816
20
76.448300062804364
0
LINE
5
196
100
AcDbEntity
8
0
100
AcDbLine
10
192.00098224862418
20
73.437206968134745
30
0
11
192.01698224134032
21
73.437222235272174
31
0
0
LINE
5
197
100
AcDbEntity
8
0
100
AcDbLine
10
202.5141151592548
20
76.446939928617454
30
0
11
202.5670862229853
21
76.477290487216294
31
0
0
LINE
5
198
100
AcDbEntity
8
0
100
AcDbLine
10
202.5670862229853
20
76.477290487216294
30
0
11
202.59803468228384
21
76.53132004271184
31
0
0
LINE
5
199
100
AcDbEntity
8
0
100
AcDbLine
10
202.59803468228384
20
76.53132004271184
30
0
11
202.59801884262873
21
76.547920035154775
31
0
0
LINE
5
200
100
AcDbEntity
8
0
100
AcDbLine
10
8.7991999880768148
20
71.900659287420567
30
0
11
8.7813000000000248
21
71.900659323635722
31
0
0
LINE
5
201
100
AcDbEntity
8
0
100
AcDbLine
10
8.7813000000000248
20
71.900659323635722
30
0
11
8.7813000000000248
21
71.900659323635722
31
0
0
LINE
5
202
100
AcDbEntity
8
0
100
AcDbLine
10
88.81230728411056
20
71.898944484823772
30
0
11
88.800000000005497
21
71.898944725187761
31
0
0
LWPOLYLINE
5
203
100
AcDbEntity
8
0
100
AcDbPolyline
90
17
70
1
43
0.0
10
113.499
20
65.900700000000001
10
110.60000000000001
20
65.900700000000001
10
110.60000000000001
20
65.890799999999999
10
110.58500000000001
20
65.859399999999994
10
110.56100000000001
20
65.86330000000001
10
110.55700000000002
20
65.886899999999997
10
110.58900000000001
20
65.900700000000001
10
110.60000000000001
20
65.900700000000001
10
110.60000000000001
20
68.699200000000005
10
110.60000000000001
20
68.710499999999996
10
110.58500000000001
20
68.741900000000001
10
110.56100000000001
20
68.738
10
110.55700000000002
20
68.714399999999998
10
110.58900000000001
20
68.699200000000005
10
110.60000000000001
20
68.699200000000005
10
116.40000000000001
20
68.699200000000005
10
116.40000000000001
20
65.900700000000001
0
LWPOLYLINE
5
204
100
AcDbEntity
8
0
100
AcDbPolyline
90
6
70
1
43
0.0
10
116.40000000000001
20
68.699200000000005
10
116.41
20
68.699200000000005
10
116.44100000000002
20
68.714399999999998
10
116.43700000000003
20
68.738
10
116.41400000000002
20
68.741900000000001
10
116.40000000000001
20
68.710499999999996
0
LWPOLYLINE
5
205
100
AcDbEntity
8
0
100
AcDbPolyline
90
6
70
1
43
0.0
10
116.40000000000001
20
65.900700000000001
10
116.40000000000001
20
65.890799999999999
10
116.41400000000002
20
65.859399999999994
10
116.43700000000003
20
65.86330000000001
10
116.44100000000002
20
65.886899999999997
10
116.41
20
65.900700000000001
0
LWPOLYLINE
5
206
100
AcDbEntity
8
0
100
AcDbPolyline
90
28
70
1
43
0.0
10
65.440687985410065
20
337.05782109763857
10
58.750687985410075
20
337.05782109763851
42
-0.41421356237299095
10
58.65068798541013
20
337.15782109763848
10
58.650687985410144
20
344.45782109763854
42
-0.41421356237340723
10
58.750687985410089
20
344.55782109763851
10
71.050687985409951
20
344.55782109763851
42
0.41421356237288692
10
71.150687985410002
20
344.65782109763865
10
71.150687985409974
20
356.95782109763849
42
-0.41421356237304302
10
71.250687985410067
20
357.05782109763845
10
78.550687985410249
20
357.05782109763845
42
-0.41421356237293894
10
78.650687985410258
20
356.95782109763854
10
78.650687985410045
20
350.26782109763326
42
2.41421356236703
10
78.660687985410121
20
350.25782109763321
10
81.550687985410178
20
350.25782109763907
42
-0.41421356237340723
10
81.65068798541013
20
350.1578210976391
10
81.650687985410087
20
344.15782109763853
42
-0.41421356237288692
10
81.55068798541015
20
344.05782109763845
10
78.660687985410036
20
344.05782109763834
42
2.4142135623791594
10
78.650687985410059
20
344.04782109763829
10
78.650687985410045
20
337.15782109763848
42
-0.41421356237309503
10
78.550687985410036
20
337.05782109763851
10
71.660687985409965
20
337.05782109763851
42
2.4142135623639973
10
71.650687985410002
20
337.04782109763858
10
71.650687985409974
20
334.15782105293499
42
-0.41421356237309503
10
71.550687985409965
20
334.05782105293503
10
65.550687985409979
20
334.05782105293503
42
-0.41421356237319906
10
65.450687985410042
20
334.15782105293511
10
65.450687985409971
20
337.04782109763858
42
2.4142135623730949
0
LWPOLYLINE
5
207
100
AcDbEntity
8
0
100
AcDbPolyline
90
28
70
1
43
0.0
10
106.56229979974151
20
350.44346804825062
42
2.41421356236703
10
106.5722997997416
20
350.43346804825057
10
109.46229979974166
20
350.43346804825649
42
-0.41421356237340723
10
109.56229979974161
20
350.33346804825646
10
109.56229979974157
20
344.33346804825584
42
-0.41421356237288692
10
109.46229979974163
20
344.23346804825576
10
106.57229979974153
20
344.23346804825565
42
2.4142135623791594
10
106.56229979974155
20
344.2234680482556
10
106.56229979974151
20
337.33346804825578
42
-0.41421356237309503
10
106.46229979974153
20
337.23346804825582
10
99.57229979974143
20
337.23346804825582
42
2.4142135623639973
10
99.562299799741467
20
337.22346804825582
10
99.562299799741425
20
334.3334680035523
42
-0.41421356237309503
10
99.46229979974143
20
334.23346800355233
10
93.46229979974143
20
334.23346800355233
42
-0.41421356237319906
10
93.362299799741493
20
334.33346800355241
10
93.362299799741422
20
337.22346804825582
42
2.4142135623730949
10
93.352299799741516
20
337.23346804825587
10
86.662299799741504
20
337.23346804825582
42
-0.41421356237299095
10
86.562299799741567
20
337.33346804825578
10
86.562299799741581
20
344.63346804825585
42
-0.41421356237340723
10
86.662299799741533
20
344.73346804825582
10
98.96229979974143
20
344.73346804825582
42
0.41421356237288692
10
99.062299799741481
20
344.83346804825595
10
99.062299799741453
20
357.13346804825585
42
-0.41421356237304302
10
99.162299799741547
20
357.23346804825582
10
106.46229979974174
20
357.23346804825582
42
-0.41421356237288692
10
106.56229979974172
20
357.13346804825591
0
CIRCLE
5
208
100
AcDbEntity
8
0
100
AcDbCircle
10
87.388459357341603
20
58.091972343139354
30
0
40
1.5000000000000002
210
0
220
0
230
1
0
CIRCLE
5
209
100
AcDbEntity
8
0
100
AcDbCircle
10
87.388459357341603
20
36.27502190725879
30
0
40
1.5000000000000002
210
0
220
0
230
1
0
CIRCLE
5
210
100
AcDbEntity
8
0
100
AcDbCircle
10
10.299201489177999
20
36.51989425564399
30
0
40
1.5000000000000002
210
0
220
0
230
1
0
CIRCLE
5
211
100
AcDbEntity
8
0
100
AcDbCircle
10
10.299201489178005
20
58.170678577957474
30
0
40
1.5000000000000002
210
0
220
0
230
1
0
LWPOLYLINE
5
212
100
AcDbEntity
8
0
100
AcDbPolyline
90
8
70
1
43
0.0
10
34.099201489178
20
38.063894255654056
10
63.49920148917802
20
38.063894255654056
42
-0.41421356237309503
10
63.799201489178031
20
37.763894255654044
10
63.799201489178031
20
28.363894255654042
42
-0.41421356237308204
10
63.499201489178034
20
28.063894255654059
10
34.099201489178007
20
28.063894255654059
42
-0.41421356237309076
10
33.799201489178003
20
28.363894255654056
10
33.799201489178003
20
37.763894255654058
42
-0.41421356237309503
0
LWPOLYLINE
5
213
100
AcDbEntity
8
0
100
AcDbPolyline
90
8
70
1
43
0.0
10
135.09000523580494
20
93.378431645299685
10
125.69000508679332
20
93.378431645299685
42
-0.41421356237309503
10
125.39000508679334
20
93.678431645299668
10
125.39000508679334
20
113.07843164529969
42
-0.41421356237309503
10
125.69000508679332
20
113.37843164529968
10
135.09000523580494
20
113.37843164529968
42
-0.41421356237309503
10
135.39000523580492
20
113.07843164529969
10
135.39000523580492
20
93.678431645299668
42
-0.41421356237309503
0
LINE
5
214
100
AcDbEntity
8
0
100
AcDbLine
10
135.39000523580492
20
93.378431645299685
30
0
11
125.39000508679331
21
113.37843164529966
31
0
0
LINE
5
215
100
AcDbEntity
8
0
100
AcDbLine
10
125.39000508679334
20
93.378431645299656
30
0
11
135.39000523580492
21
113.37843164529966
31
0
0
CIRCLE
5
216
100
AcDbEntity
8
0
100
AcDbCircle
10
100.80100000000002
20
134.60000000000002
30
0
40
1.5000000000000062
210
0
220
0
230
1
0
CIRCLE
5
217
100
AcDbEntity
8
0
100
AcDbCircle
10
100.80100000000002
20
223.10000000000002
30
0
40
1.5000000000000062
210
0
220
0
230
1
0
CIRCLE
5
218
100
AcDbEntity
8
0
100
AcDbCircle
10
44.800000000000004
20
134.60000000000002
30
0
40
1.5000000000000062
210
0
220
0
230
1
0
CIRCLE
5
219
100
AcDbEntity
8
0
100
AcDbCircle
10
44.800000000000004
20
223.10000000000002
30
0
40
1.5000000000000062
210
0
220
0
230
1
0
LWPOLYLINE
5
220
100
AcDbEntity
8
0
100
AcDbPolyline
90
4
70
1
43
0.0
10
45.700000000000003
20
288.90000000000003
10
52.699999999999996
20
288.90000000000003
10
52.699999999999996
20
273.90000000000003
10
45.700000000000003
20
273.90000000000003
0
LWPOLYLINE
5
221
100
AcDbEntity
8
0
100
AcDbPolyline
90
4
70
1
43
0.0
10
58.900499999999994
20
273.90000000000003
10
58.900499999999994
20
288.90000000000003
10
65.900499999999994
20
288.90000000000003
10
65.900499999999994
20
273.90000000000003
0
ENDSEC
0
SECTION
2
OBJECTS
0
DICTIONARY
5
C
100
AcDbDictionary
3
ACAD_GROUP
350
D
3
ACAD_MLINESTYLE
350
17
0
DICTIONARY
5
D
100
AcDbDictionary
0
DICTIONARY
5
1A
330
C
100
AcDbDictionary
0
DICTIONARY
5
17
100
AcDbDictionary
0
ENDSEC
0
EOF
